<svg width="56" height="56" viewBox="0 0 56 56" fill="none" xmlns="http://www.w3.org/2000/svg">
  <style>
    path {
      fill: #333333;
    }
    @media (prefers-color-scheme: dark) {
      path {
        fill: #eeeeee;
      }
    }
  </style>
<path fill-rule="evenodd" clip-rule="evenodd" d="M25.4143 12.4655L28.6142 9.26539C31.1924 6.68731 35.7143 4.89815 40.208 4.25627C42.4224 3.93995 44.5164 3.92027 46.2256 4.17623C47.9948 4.44119 49.0792 4.95911 49.586 5.46555C50.0924 5.97199 50.6104 7.05627 50.8752 8.82555C51.1312 10.5347 51.1116 12.6288 50.7952 14.8433C50.1532 19.3368 48.364 23.8588 45.7856 26.4371L28 44.2229L23.4142 39.6373C22.6331 38.8561 21.3668 38.8561 20.5857 39.6373C19.8047 40.4181 19.8047 41.6845 20.5857 42.4657L26.5858 48.4657C27.3668 49.2465 28.6332 49.2465 29.4142 48.4657L31.6029 46.2769L36.285 54.0801C36.6018 54.6085 37.1443 54.9609 37.7556 55.0365C38.3668 55.1117 38.9788 54.9009 39.414 54.4657L47.414 46.4657C47.8592 46.0205 48.0688 45.3917 47.98 44.7685L46.1212 31.7584L48.6144 29.2655C52.036 25.8436 54.0468 20.3655 54.7548 15.409C55.1136 12.8985 55.1564 10.4051 54.8312 8.23311C54.5148 6.12119 53.8076 4.03055 52.414 2.63707C51.0208 1.24363 48.93 0.536597 46.818 0.220325C44.646 -0.104951 42.1528 -0.0621545 39.642 0.296469C34.6857 1.00449 29.2076 3.01527 25.7858 6.43695L23.2929 8.92999L10.2828 7.07143C9.65968 6.98239 9.03092 7.19195 8.5858 7.63711L0.585804 15.6371C0.150316 16.0726 -0.0602477 16.6844 0.0150003 17.2957C0.0902523 17.9069 0.44292 18.4494 0.971028 18.7663L8.77456 23.4484L6.58584 25.6371C6.2108 26.0121 6.00008 26.5209 6.00008 27.0513C6.00008 27.5817 6.2108 28.0904 6.58584 28.4655L12.5859 34.4655C13.3669 35.2466 14.6332 35.2466 15.4143 34.4655C16.1954 33.6845 16.1954 32.4181 15.4143 31.6371L10.8285 27.0513L13.4143 24.4655L25.4143 12.4655ZM38.3972 49.8257L34.5184 43.3613L42.5856 35.2939L43.8788 44.3441L38.3972 49.8257ZM11.69 20.5329L19.7574 12.4655L10.7071 11.1726L5.22552 16.6542L11.69 20.5329ZM7.41424 38.4653C8.19528 37.6845 8.19528 36.4181 7.41424 35.637C6.6332 34.856 5.36684 34.856 4.5858 35.637L0.585804 39.6369C-0.195248 40.4181 -0.195248 41.6845 0.585804 42.4653C1.36685 43.2465 2.6332 43.2465 3.41424 42.4653L7.41424 38.4653ZM13.4143 44.4657C14.1954 43.6845 14.1954 42.4181 13.4144 41.6373C12.6333 40.8561 11.367 40.8561 10.5859 41.6373L2.5858 49.6369C1.80476 50.4181 1.80475 51.6845 2.5858 52.4653C3.36684 53.2465 4.63316 53.2465 5.4142 52.4657L13.4143 44.4657ZM19.4142 50.4653C20.1953 49.6845 20.1953 48.4181 19.4142 47.6369C18.6332 46.8561 17.3668 46.8561 16.5858 47.6369L12.5858 51.6369C11.8048 52.4181 11.8048 53.6845 12.5858 54.4653C13.3668 55.2465 14.6332 55.2465 15.4142 54.4653L19.4142 50.4653ZM35.9999 24.0465C38.7588 24.0465 40.9952 21.8101 40.9952 19.0513C40.9952 16.2925 38.7588 14.056 35.9999 14.056C33.241 14.056 31.0046 16.2925 31.0046 19.0513C31.0046 21.8101 33.241 24.0465 35.9999 24.0465Z" fill="white"/>
</svg>
